<svg xmlns="http://www.w3.org/2000/svg" xmlns:xlink="http://www.w3.org/1999/xlink" fill="none" version="1.1" width="133" height="33" viewBox="0 0 133 33"><defs><clipPath id="master_svg0_163_2383"><rect x="0" y="5" width="28" height="28" rx="0"/></clipPath></defs><g><g><path d="M41.70586,5.10411Q42.66385,5.10411,43.50208,5.65679Q44.34031,6.20947,44.85615,7.14903Q45.372,8.08858,45.372,9.24921Q45.372,10.3914,44.85615,11.331Q44.34031,12.2705,43.50208,12.8324Q42.66385,13.3943,41.70586,13.3943L38.31609,13.3943L38.50031,13.0627L38.50031,16.8762Q38.50031,17.3552,38.20555,17.6776Q37.91079,18,37.4318,18Q36.97123,18,36.67647,17.6776Q36.3817,17.3552,36.3817,16.8762L36.3817,6.22789Q36.3817,5.7489,36.7041,5.4265Q37.0265,5.10411,37.50549,5.10411L41.70586,5.10411ZM41.70586,11.2941Q42.0559,11.2941,42.38751,10.9994Q42.71911,10.7046,42.94019,10.2348Q43.16126,9.76505,43.16126,9.24921Q43.16126,8.71496,42.94019,8.25439Q42.71911,7.79382,42.38751,7.50827Q42.0559,7.22272,41.70586,7.22272L38.27924,7.22272L38.50031,6.89111L38.50031,11.5889L38.29766,11.2941L41.70586,11.2941ZM59.3548,11.5521Q59.3548,12.9338,58.8942,14.1312Q58.4337,15.3287,57.5954,16.2406Q56.7572,17.1526,55.6058,17.6684Q54.4544,18.1842,53.0911,18.1842Q51.7278,18.1842,50.5856,17.6684Q49.4434,17.1526,48.605199999999996,16.2406Q47.7669,15.3287,47.3064,14.1312Q46.8458,12.9338,46.8458,11.5521Q46.8458,10.1704,47.3064,8.97287Q47.7669,7.7754,48.605199999999996,6.86347Q49.4434,5.95155,50.5856,5.43571Q51.7278,4.91988,53.0911,4.91988Q54.4544,4.91988,55.6058,5.43571Q56.7572,5.95155,57.5954,6.86347Q58.4337,7.7754,58.8942,8.97287Q59.3548,10.1704,59.3548,11.5521ZM56.959900000000005,11.5521Q56.959900000000005,10.3177,56.4625,9.31369Q55.965,8.30966,55.099199999999996,7.72013Q54.2333,7.1306,53.0911,7.1306Q51.948899999999995,7.1306,51.083,7.72013Q50.2172,8.30966,49.729,9.30448Q49.2408,10.2993,49.2408,11.5521Q49.2408,12.7864,49.729,13.7904Q50.2172,14.7944,51.083,15.384Q51.948899999999995,15.9735,53.0911,15.9735Q54.2333,15.9735,55.099199999999996,15.384Q55.965,14.7944,56.4625,13.7904Q56.959900000000005,12.7864,56.959900000000005,11.5521ZM69.911,5.10411Q70.3163,5.10411,70.7124,5.39887Q71.10849999999999,5.69363,71.10849999999999,6.19105Q71.10849999999999,6.54108,70.8506,6.89111L63.7947,15.9551L63.5736,15.8814L69.7268,15.8814Q70.20580000000001,15.8814,70.5282,16.1669Q70.8506,16.4525,70.8506,16.9315Q70.8506,17.392,70.5282,17.696Q70.20580000000001,18,69.7268,18L61.6392,18Q61.1602,18,60.810199999999995,17.6592Q60.4602,17.3184,60.4602,16.9131Q60.4602,16.563,60.7181,16.213L67.7924,7.11218L67.9582,7.22272L62.3761,7.22272Q61.8972,7.22272,61.574799999999996,6.92795Q61.2524,6.63319,61.2524,6.1542Q61.2524,5.67521,61.574799999999996,5.38966Q61.8972,5.10411,62.3761,5.10411L69.911,5.10411ZM84.9071,11.5521Q84.9071,12.9338,84.4465,14.1312Q83.98599999999999,15.3287,83.1477,16.2406Q82.3095,17.1526,81.15809999999999,17.6684Q80.0067,18.1842,78.6434,18.1842Q77.2801,18.1842,76.1379,17.6684Q74.9957,17.1526,74.1575,16.2406Q73.3192,15.3287,72.8587,14.1312Q72.3981,12.9338,72.3981,11.5521Q72.3981,10.1704,72.8587,8.97287Q73.3192,7.7754,74.1575,6.86347Q74.9957,5.95155,76.1379,5.43571Q77.2801,4.91988,78.6434,4.91988Q80.0067,4.91988,81.15809999999999,5.43571Q82.3095,5.95155,83.1477,6.86347Q83.98599999999999,7.7754,84.4465,8.97287Q84.9071,10.1704,84.9071,11.5521ZM82.5122,11.5521Q82.5122,10.3177,82.0147,9.31369Q81.5173,8.30966,80.6515,7.72013Q79.7856,7.1306,78.6434,7.1306Q77.5012,7.1306,76.6353,7.72013Q75.7695,8.30966,75.2812,9.30448Q74.793,10.2993,74.793,11.5521Q74.793,12.7864,75.2812,13.7904Q75.7695,14.7944,76.6353,15.384Q77.5012,15.9735,78.6434,15.9735Q79.7856,15.9735,80.6515,15.384Q81.5173,14.7944,82.0147,13.7904Q82.5122,12.7864,82.5122,11.5521ZM88.18639999999999,5.08568Q88.4443,5.08568,88.7298,5.22385Q89.0154,5.36202,89.1628,5.5831L93.6395,12.4732L92.7183,12.4363L97.3056,5.5831Q97.65559999999999,5.08568,98.20830000000001,5.08568Q98.6505,5.08568,99.0005,5.39887Q99.3505,5.71206,99.3505,6.20947L99.3505,16.8762Q99.3505,17.3552,99.0373,17.6776Q98.72409999999999,18,98.20830000000001,18Q97.6925,18,97.37010000000001,17.6776Q97.04769999999999,17.3552,97.04769999999999,16.8762L97.04769999999999,8.19912L97.7662,8.36492L94.0079,14.0944Q93.8421,14.297,93.5934,14.4444Q93.3447,14.5918,93.0868,14.5734Q92.84729999999999,14.5918,92.5986,14.4444Q92.34989999999999,14.297,92.1841,14.0944L88.6653,8.53073L89.1443,7.55433L89.1443,16.8762Q89.1443,17.3552,88.84960000000001,17.6776Q88.5548,18,88.0758,18Q87.6152,18,87.32050000000001,17.6776Q87.0257,17.3552,87.0257,16.8762L87.0257,6.20947Q87.0257,5.7489,87.3665,5.41729Q87.7074,5.08568,88.18639999999999,5.08568ZM104.4168,16.8762Q104.4168,17.3552,104.0667,17.6776Q103.7167,18,103.2561,18Q102.7403,18,102.4271,17.6776Q102.1139,17.3552,102.1139,16.8762L102.1139,6.22789Q102.1139,5.7489,102.4455,5.4265Q102.7771,5.10411,103.293,5.10411Q103.7351,5.10411,104.0759,5.4265Q104.4168,5.7489,104.4168,6.22789L104.4168,16.8762ZM116.9626,5.10411Q117.4048,5.10411,117.6811,5.39887Q117.9575,5.69363,117.9575,6.13578L117.9575,16.8762Q117.9575,17.3552,117.635,17.6776Q117.3127,18,116.8337,18Q116.5942,18,116.3455,17.9171Q116.0968,17.8342,115.9678,17.6868L108.7277,8.49388L109.2067,8.19912L109.2067,16.9683Q109.2067,17.4105,108.9211,17.7052Q108.6356,18,108.175,18Q107.7328,18,107.4565,17.7052Q107.1802,17.4105,107.1802,16.9683L107.1802,6.22789Q107.1802,5.7489,107.5026,5.4265Q107.825,5.10411,108.3039,5.10411Q108.5619,5.10411,108.8382,5.20543Q109.1145,5.30676,109.2435,5.50941L116.2626,14.4628L115.9494,14.6839L115.9494,6.13578Q115.9494,5.69363,116.2257,5.39887Q116.5021,5.10411,116.9626,5.10411ZM126.2477,5.10411Q127.5741,5.10411,128.6058,5.60152Q129.6374,6.09893,130.3467,6.99243Q131.05599999999998,7.88593,131.4152,9.05578Q131.7745,10.2256,131.7745,11.5521Q131.7745,13.3391,131.1297,14.8037Q130.48489999999998,16.2683,129.25979999999998,17.1341Q128.0347,18,126.2477,18L121.8446,18Q121.3656,18,121.0433,17.6776Q120.7209,17.3552,120.7209,16.8762L120.7209,6.22789Q120.7209,5.7489,121.0433,5.4265Q121.3656,5.10411,121.8446,5.10411L126.2477,5.10411ZM126.0634,15.8814Q127.2241,15.8814,127.961,15.2827Q128.6979,14.6839,129.0387,13.6983Q129.3795,12.7127,129.3795,11.5521Q129.3795,10.6862,129.1861,9.90322Q128.99259999999998,9.12026,128.5873,8.52152Q128.1821,7.92278,127.5557,7.57275Q126.9293,7.22272,126.0634,7.22272L122.8395,7.22272L123.0237,7.05691L123.0237,16.084L122.9132,15.8814L126.0634,15.8814Z" fill="#FFFFFF" fill-opacity="1"/></g><g><path d="M38.542,31L38.542,27.082L37.168,27.082L37.168,26.542L40.621,26.542L40.621,27.082L39.25,27.082L39.25,31L38.542,31ZM44.677,31L44.677,26.542L47.269,26.542L47.269,27.082L45.385,27.082L45.385,28.438L46.783,28.438L46.783,28.972L45.385,28.972L45.385,30.448L47.479,30.448L47.479,31L44.677,31ZM51.184,28.789Q51.184,28.234,51.3505,27.808Q51.516999999999996,27.382,51.808,27.088Q52.099000000000004,26.794,52.4755,26.644Q52.852000000000004,26.494,53.269,26.494Q53.605000000000004,26.494,53.8345,26.5285Q54.064,26.563,54.211,26.602Q54.358000000000004,26.641,54.448,26.662L54.346000000000004,27.289Q54.298,27.259,54.181,27.205Q54.064,27.151,53.854,27.1045Q53.644,27.058,53.314,27.058Q52.882,27.058,52.561,27.2635Q52.24,27.469,52.0645,27.8485Q51.888999999999996,28.228,51.888999999999996,28.747Q51.888999999999996,29.256999999999998,52.0615,29.6515Q52.234,30.046,52.558,30.271Q52.882,30.496000000000002,53.329,30.496000000000002Q53.551,30.496000000000002,53.7715,30.454Q53.992000000000004,30.412,54.164500000000004,30.349Q54.337,30.286,54.415,30.22L54.415,30.814Q54.286,30.865000000000002,54.129999999999995,30.919Q53.974000000000004,30.973,53.7715,31.0105Q53.569,31.048000000000002,53.293,31.048000000000002Q52.653999999999996,31.048000000000002,52.18,30.764499999999998Q51.706,30.481,51.445,29.9725Q51.184,29.464,51.184,28.789ZM58.632999999999996,31L58.632999999999996,26.542L59.341,26.542L59.341,28.48L61.375,28.48L61.375,26.542L62.077,26.542L62.077,31L61.375,31L61.375,29.02L59.341,29.02L59.341,31L58.632999999999996,31ZM66.493,31L66.493,26.542L67.135,26.542L69.001,29.428L69.595,30.538L69.38499999999999,30.538L69.307,29.29L69.307,26.542L69.961,26.542L69.961,31L69.289,31L67.495,28.222L66.805,26.968L67.063,26.968L67.135,28.318L67.135,31L66.493,31ZM76.12299999999999,31.048000000000002Q75.50200000000001,31.06,75.049,30.764499999999998Q74.596,30.469,74.356,29.9425Q74.116,29.416,74.131,28.738Q74.146,27.991,74.4265,27.493Q74.707,26.995,75.17349999999999,26.746Q75.64,26.497,76.213,26.494Q76.807,26.491,77.24799999999999,26.7715Q77.689,27.052,77.92750000000001,27.565Q78.166,28.078,78.15100000000001,28.768Q78.136,29.515,77.869,30.0175Q77.602,30.52,77.149,30.778Q76.696,31.036,76.12299999999999,31.048000000000002ZM76.14099999999999,30.508Q76.735,30.508,77.086,30.0595Q77.437,29.611,77.437,28.738Q77.437,28.276,77.2975,27.8875Q77.158,27.499,76.8805,27.2635Q76.60300000000001,27.028,76.189,27.028Q75.826,27.028,75.52000000000001,27.214Q75.214,27.4,75.0295,27.787Q74.845,28.174,74.845,28.78Q74.845,29.239,74.9905,29.633499999999998Q75.136,30.028,75.424,30.268Q75.712,30.508,76.14099999999999,30.508ZM82.321,31L82.321,26.542L83.023,26.542L83.023,30.442L84.775,30.442L84.775,31L82.321,31ZM88.906,31L88.906,26.542L89.614,26.542L89.614,31L88.906,31ZM93.87100000000001,28.792Q93.87100000000001,28.213,94.033,27.7825Q94.195,27.352,94.4815,27.0655Q94.768,26.779,95.149,26.6365Q95.53,26.494,95.968,26.494Q96.304,26.494,96.5065,26.5225Q96.709,26.551,96.8665,26.5915Q97.024,26.632,97.219,26.668L97.189,27.295Q96.976,27.187,96.70150000000001,27.1165Q96.42699999999999,27.046,95.935,27.046Q95.545,27.046,95.2435,27.244Q94.94200000000001,27.442,94.771,27.814Q94.6,28.186,94.6,28.714Q94.6,29.218,94.744,29.626Q94.888,30.034,95.18350000000001,30.2725Q95.479,30.511,95.935,30.511Q96.178,30.511,96.4225,30.472Q96.667,30.433,96.793,30.352L96.793,29.17L96.97,29.293L96.007,29.251L96.007,28.738L97.471,28.738L97.471,30.727Q97.372,30.733,97.249,30.7825Q97.126,30.832,96.955,30.8935Q96.78399999999999,30.955,96.5395,31.0015Q96.295,31.048000000000002,95.953,31.048000000000002Q95.28999999999999,31.048000000000002,94.825,30.755499999999998Q94.36,30.463,94.1155,29.953Q93.87100000000001,29.442999999999998,93.87100000000001,28.792ZM101.776,31L101.776,26.542L102.484,26.542L102.484,31L101.776,31ZM106.981,31L106.981,26.542L109.573,26.542L109.573,27.082L107.689,27.082L107.689,28.438L109.087,28.438L109.087,28.972L107.689,28.972L107.689,30.448L109.783,30.448L109.783,31L106.981,31ZM115.012,31.048000000000002Q114.721,31.048000000000002,114.4615,31.0045Q114.202,30.961,114.016,30.901Q113.83,30.841,113.749,30.79L113.896,30.217Q114.01,30.283,114.181,30.346Q114.352,30.409,114.556,30.4495Q114.76,30.490000000000002,114.97,30.490000000000002Q115.381,30.490000000000002,115.597,30.352Q115.813,30.214,115.813,29.902Q115.813,29.692,115.705,29.549500000000002Q115.597,29.407,115.3825,29.281Q115.168,29.155,114.847,29.002Q114.574,28.867,114.3175,28.678Q114.061,28.489,113.896,28.234Q113.731,27.979,113.731,27.649Q113.731,27.325,113.8585,27.1045Q113.986,26.884,114.202,26.749Q114.418,26.614,114.6835,26.554Q114.949,26.494,115.228,26.494Q115.636,26.494,115.903,26.5735Q116.17,26.653,116.287,26.731L116.149,27.286Q115.996,27.19,115.7905,27.113500000000002Q115.585,27.037,115.228,27.037Q115.009,27.037,114.823,27.094Q114.637,27.151,114.523,27.268Q114.409,27.384999999999998,114.409,27.568Q114.409,27.775,114.4945,27.9145Q114.58,28.054,114.772,28.1755Q114.964,28.297,115.276,28.459Q115.501,28.576,115.72,28.7065Q115.939,28.837,116.1175,28.996Q116.296,29.155,116.4025,29.360500000000002Q116.509,29.566,116.509,29.83Q116.509,30.238,116.3185,30.5095Q116.128,30.781,115.7905,30.9145Q115.453,31.048000000000002,115.012,31.048000000000002Z" fill="#FFFFFF" fill-opacity="1"/></g><g clip-path="url(#master_svg0_163_2383)"><g><g><g><g><path d="M0,5L27.7983,5L27.7983,7.691L5.84874,22.1679L12.5714,32.659400000000005L0,24.5523L0,19.3747L16.1681,9.80292L0,9.189779999999999L0,5Z" fill="#FFFFFF" fill-opacity="1" style="mix-blend-mode:passthrough"/></g></g><g><g><path d="M14.554622650146484,19.374690361938477L28.000022650146484,9.973230361938477L28.000022650146484,33.00003036193848L22.991602650146483,33.00003036193848L23.159662650146487,19.204370361938476L16.773112650146484,23.394130361938476L14.554622650146484,19.374690361938477Z" fill="#FFFFFF" fill-opacity="1" style="mix-blend-mode:passthrough"/></g></g><g><g><path d="M21.277317001342773,33.000054449462894L12.873947001342774,19.88565444946289L8.537817001342773,22.91728444946289L14.890757001342774,33.000054449462894L21.277317001342773,33.000054449462894Z" fill="#FFFFFF" fill-opacity="1" style="mix-blend-mode:passthrough"/></g></g></g></g></g></g></svg>