<svg xmlns="http://www.w3.org/2000/svg" xmlns:xlink="http://www.w3.org/1999/xlink" fill="none" version="1.1" width="133" height="33" viewBox="0 0 133 33"><defs><clipPath id="master_svg0_163_2383"><rect x="0" y="5" width="28" height="28" rx="0"/></clipPath></defs><g><g><path d="M41.70586,5.10411Q42.66385,5.10411,43.50208,5.65679Q44.34031,6.20947,44.85615,7.14903Q45.372,8.08858,45.372,9.24921Q45.372,10.3914,44.85615,11.331Q44.34031,12.2705,43.50208,12.8324Q42.66385,13.3943,41.70586,13.3943L38.31609,13.3943L38.50031,13.0627L38.50031,16.8762Q38.50031,17.3552,38.20555,17.6776Q37.91079,18,37.4318,18Q36.97123,18,36.67647,17.6776Q36.3817,17.3552,36.3817,16.8762L36.3817,6.22789Q36.3817,5.7489,36.7041,5.4265Q37.0265,5.10411,37.50549,5.10411L41.70586,5.10411ZM41.70586,11.2941Q42.0559,11.2941,42.38751,10.9994Q42.71911,10.7046,42.94019,10.2348Q43.16126,9.76505,43.16126,9.24921Q43.16126,8.71496,42.94019,8.25439Q42.71911,7.79382,42.38751,7.50827Q42.0559,7.22272,41.70586,7.22272L38.27924,7.22272L38.50031,6.89111L38.50031,11.5889L38.29766,11.2941L41.70586,11.2941ZM59.3548,11.5521Q59.3548,12.9338,58.8942,14.1312Q58.4337,15.3287,57.5954,16.2406Q56.7572,17.1526,55.6058,17.6684Q54.4544,18.1842,53.0911,18.1842Q51.7278,18.1842,50.5856,17.6684Q49.4434,17.1526,48.605199999999996,16.2406Q47.7669,15.3287,47.3064,14.1312Q46.8458,12.9338,46.8458,11.5521Q46.8458,10.1704,47.3064,8.97287Q47.7669,7.7754,48.605199999999996,6.86347Q49.4434,5.95155,50.5856,5.43571Q51.7278,4.91988,53.0911,4.91988Q54.4544,4.91988,55.6058,5.43571Q56.7572,5.95155,57.5954,6.86347Q58.4337,7.7754,58.8942,8.97287Q59.3548,10.1704,59.3548,11.5521ZM56.959900000000005,11.5521Q56.959900000000005,10.3177,56.4625,9.31369Q55.965,8.30966,55.099199999999996,7.72013Q54.2333,7.1306,53.0911,7.1306Q51.948899999999995,7.1306,51.083,7.72013Q50.2172,8.30966,49.729,9.30448Q49.2408,10.2993,49.2408,11.5521Q49.2408,12.7864,49.729,13.7904Q50.2172,14.7944,51.083,15.384Q51.948899999999995,15.9735,53.0911,15.9735Q54.2333,15.9735,55.099199999999996,15.384Q55.965,14.7944,56.4625,13.7904Q56.959900000000005,12.7864,56.959900000000005,11.5521ZM70.1874,5.10411Q70.59270000000001,5.10411,70.9888,5.39887Q71.3848,5.69363,71.3848,6.19105Q71.3848,6.54108,71.1269,6.89111L64.071,15.9551L63.85,15.8814L70.0031,15.8814Q70.4821,15.8814,70.80449999999999,16.1669Q71.1269,16.4525,71.1269,16.9315Q71.1269,17.392,70.80449999999999,17.696Q70.4821,18,70.0031,18L61.9156,18Q61.4366,18,61.0865,17.6592Q60.7365,17.3184,60.7365,16.9131Q60.7365,16.563,60.9944,16.213L68.06880000000001,7.11218L68.2346,7.22272L62.6525,7.22272Q62.173500000000004,7.22272,61.8511,6.92795Q61.5287,6.63319,61.5287,6.1542Q61.5287,5.67521,61.8511,5.38966Q62.173500000000004,5.10411,62.6525,5.10411L70.1874,5.10411ZM85.2756,11.5521Q85.2756,12.9338,84.815,14.1312Q84.3544,15.3287,83.5162,16.2406Q82.678,17.1526,81.5265,17.6684Q80.3751,18.1842,79.0118,18.1842Q77.6486,18.1842,76.5064,17.6684Q75.3642,17.1526,74.52590000000001,16.2406Q73.6877,15.3287,73.22710000000001,14.1312Q72.76650000000001,12.9338,72.76650000000001,11.5521Q72.76650000000001,10.1704,73.22710000000001,8.97287Q73.6877,7.7754,74.52590000000001,6.86347Q75.3642,5.95155,76.5064,5.43571Q77.6486,4.91988,79.0118,4.91988Q80.3751,4.91988,81.5265,5.43571Q82.678,5.95155,83.5162,6.86347Q84.3544,7.7754,84.815,8.97287Q85.2756,10.1704,85.2756,11.5521ZM82.8806,11.5521Q82.8806,10.3177,82.3832,9.31369Q81.8858,8.30966,81.0199,7.72013Q80.1541,7.1306,79.0118,7.1306Q77.86959999999999,7.1306,77.0038,7.72013Q76.1379,8.30966,75.6497,9.30448Q75.16149999999999,10.2993,75.16149999999999,11.5521Q75.16149999999999,12.7864,75.6497,13.7904Q76.1379,14.7944,77.0038,15.384Q77.86959999999999,15.9735,79.0118,15.9735Q80.1541,15.9735,81.0199,15.384Q81.8858,14.7944,82.3832,13.7904Q82.8806,12.7864,82.8806,11.5521ZM88.5548,5.08568Q88.8127,5.08568,89.0983,5.22385Q89.38380000000001,5.36202,89.5312,5.5831L94.0079,12.4732L93.0868,12.4363L97.674,5.5831Q98.0241,5.08568,98.57679999999999,5.08568Q99.0189,5.08568,99.3689,5.39887Q99.719,5.71206,99.719,6.20947L99.719,16.8762Q99.719,17.3552,99.4058,17.6776Q99.0926,18,98.57679999999999,18Q98.0609,18,97.7385,17.6776Q97.4161,17.3552,97.4161,16.8762L97.4161,8.19912L98.1346,8.36492L94.37639999999999,14.0944Q94.2106,14.297,93.9619,14.4444Q93.7132,14.5918,93.45519999999999,14.5734Q93.2158,14.5918,92.967,14.4444Q92.7183,14.297,92.55250000000001,14.0944L89.0338,8.53073L89.5128,7.55433L89.5128,16.8762Q89.5128,17.3552,89.218,17.6776Q88.9233,18,88.4443,18Q87.9837,18,87.68889999999999,17.6776Q87.3942,17.3552,87.3942,16.8762L87.3942,6.20947Q87.3942,5.7489,87.735,5.41729Q88.0758,5.08568,88.5548,5.08568ZM104.7852,16.8762Q104.7852,17.3552,104.4352,17.6776Q104.0852,18,103.6246,18Q103.1087,18,102.7956,17.6776Q102.4824,17.3552,102.4824,16.8762L102.4824,6.22789Q102.4824,5.7489,102.814,5.4265Q103.1456,5.10411,103.6614,5.10411Q104.1036,5.10411,104.4444,5.4265Q104.7852,5.7489,104.7852,6.22789L104.7852,16.8762ZM117.3311,5.10411Q117.7732,5.10411,118.0496,5.39887Q118.3259,5.69363,118.3259,6.13578L118.3259,16.8762Q118.3259,17.3552,118.0035,17.6776Q117.6811,18,117.2021,18Q116.9626,18,116.7139,17.9171Q116.4652,17.8342,116.3363,17.6868L109.0961,8.49388L109.5751,8.19912L109.5751,16.9683Q109.5751,17.4105,109.2896,17.7052Q109.004,18,108.5434,18Q108.1013,18,107.825,17.7052Q107.5486,17.4105,107.5486,16.9683L107.5486,6.22789Q107.5486,5.7489,107.871,5.4265Q108.1934,5.10411,108.6724,5.10411Q108.9303,5.10411,109.2067,5.20543Q109.483,5.30676,109.612,5.50941L116.631,14.4628L116.3178,14.6839L116.3178,6.13578Q116.3178,5.69363,116.5942,5.39887Q116.8705,5.10411,117.3311,5.10411ZM126.6161,5.10411Q127.9426,5.10411,128.9742,5.60152Q130.0059,6.09893,130.71519999999998,6.99243Q131.4244,7.88593,131.7837,9.05578Q132.1429,10.2256,132.1429,11.5521Q132.1429,13.3391,131.4981,14.8037Q130.8533,16.2683,129.6282,17.1341Q128.4031,18,126.6161,18L122.2131,18Q121.7341,18,121.4117,17.6776Q121.0893,17.3552,121.0893,16.8762L121.0893,6.22789Q121.0893,5.7489,121.4117,5.4265Q121.7341,5.10411,122.2131,5.10411L126.6161,5.10411ZM126.4319,15.8814Q127.5925,15.8814,128.32940000000002,15.2827Q129.0663,14.6839,129.4072,13.6983Q129.748,12.7127,129.748,11.5521Q129.748,10.6862,129.55450000000002,9.90322Q129.3611,9.12026,128.9558,8.52152Q128.5505,7.92278,127.9241,7.57275Q127.2978,7.22272,126.4319,7.22272L123.2079,7.22272L123.3921,7.05691L123.3921,16.084L123.2816,15.8814L126.4319,15.8814Z" fill="#000000" fill-opacity="1"/></g><g><path d="M38.542,31L38.542,27.082L37.168,27.082L37.168,26.542L40.621,26.542L40.621,27.082L39.25,27.082L39.25,31L38.542,31ZM44.677,31L44.677,26.542L47.269,26.542L47.269,27.082L45.385,27.082L45.385,28.438L46.783,28.438L46.783,28.972L45.385,28.972L45.385,30.448L47.479,30.448L47.479,31L44.677,31ZM51.334,28.789Q51.334,28.234,51.5005,27.808Q51.667,27.382,51.958,27.088Q52.249,26.794,52.6255,26.644Q53.001999999999995,26.494,53.419,26.494Q53.754999999999995,26.494,53.9845,26.5285Q54.214,26.563,54.361000000000004,26.602Q54.507999999999996,26.641,54.598,26.662L54.495999999999995,27.289Q54.448,27.259,54.331,27.205Q54.214,27.151,54.004000000000005,27.1045Q53.794,27.058,53.464,27.058Q53.032,27.058,52.711,27.2635Q52.39,27.469,52.2145,27.8485Q52.039,28.228,52.039,28.747Q52.039,29.256999999999998,52.2115,29.6515Q52.384,30.046,52.708,30.271Q53.032,30.496000000000002,53.479,30.496000000000002Q53.701,30.496000000000002,53.9215,30.454Q54.141999999999996,30.412,54.314499999999995,30.349Q54.486999999999995,30.286,54.565,30.22L54.565,30.814Q54.436,30.865000000000002,54.28,30.919Q54.123999999999995,30.973,53.9215,31.0105Q53.719,31.048000000000002,53.443,31.048000000000002Q52.804,31.048000000000002,52.33,30.764499999999998Q51.856,30.481,51.595,29.9725Q51.334,29.464,51.334,28.789ZM58.783,31L58.783,26.542L59.491,26.542L59.491,28.48L61.525,28.48L61.525,26.542L62.227000000000004,26.542L62.227000000000004,31L61.525,31L61.525,29.02L59.491,29.02L59.491,31L58.783,31ZM66.643,31L66.643,26.542L67.285,26.542L69.15100000000001,29.428L69.745,30.538L69.535,30.538L69.457,29.29L69.457,26.542L70.11099999999999,26.542L70.11099999999999,31L69.439,31L67.645,28.222L66.955,26.968L67.213,26.968L67.285,28.318L67.285,31L66.643,31ZM76.273,31.048000000000002Q75.652,31.06,75.199,30.764499999999998Q74.74600000000001,30.469,74.506,29.9425Q74.26599999999999,29.416,74.281,28.738Q74.29599999999999,27.991,74.57650000000001,27.493Q74.857,26.995,75.3235,26.746Q75.78999999999999,26.497,76.363,26.494Q76.957,26.491,77.398,26.7715Q77.839,27.052,78.0775,27.565Q78.316,28.078,78.301,28.768Q78.286,29.515,78.019,30.0175Q77.75200000000001,30.52,77.299,30.778Q76.846,31.036,76.273,31.048000000000002ZM76.291,30.508Q76.88499999999999,30.508,77.23599999999999,30.0595Q77.587,29.611,77.587,28.738Q77.587,28.276,77.44749999999999,27.8875Q77.30799999999999,27.499,77.0305,27.2635Q76.753,27.028,76.339,27.028Q75.976,27.028,75.67,27.214Q75.364,27.4,75.17949999999999,27.787Q74.995,28.174,74.995,28.78Q74.995,29.239,75.1405,29.633499999999998Q75.286,30.028,75.574,30.268Q75.862,30.508,76.291,30.508ZM82.471,31L82.471,26.542L83.173,26.542L83.173,30.442L84.925,30.442L84.925,31L82.471,31ZM89.056,31L89.056,26.542L89.76400000000001,26.542L89.76400000000001,31L89.056,31ZM94.021,28.792Q94.021,28.213,94.18299999999999,27.7825Q94.345,27.352,94.6315,27.0655Q94.918,26.779,95.299,26.6365Q95.68,26.494,96.118,26.494Q96.45400000000001,26.494,96.6565,26.5225Q96.85900000000001,26.551,97.01650000000001,26.5915Q97.174,26.632,97.369,26.668L97.339,27.295Q97.126,27.187,96.8515,27.1165Q96.577,27.046,96.08500000000001,27.046Q95.695,27.046,95.3935,27.244Q95.092,27.442,94.92099999999999,27.814Q94.75,28.186,94.75,28.714Q94.75,29.218,94.894,29.626Q95.038,30.034,95.3335,30.2725Q95.62899999999999,30.511,96.08500000000001,30.511Q96.328,30.511,96.57249999999999,30.472Q96.81700000000001,30.433,96.943,30.352L96.943,29.17L97.12,29.293L96.157,29.251L96.157,28.738L97.62100000000001,28.738L97.62100000000001,30.727Q97.52199999999999,30.733,97.399,30.7825Q97.27600000000001,30.832,97.10499999999999,30.8935Q96.934,30.955,96.68950000000001,31.0015Q96.445,31.048000000000002,96.10300000000001,31.048000000000002Q95.44,31.048000000000002,94.975,30.755499999999998Q94.50999999999999,30.463,94.2655,29.953Q94.021,29.442999999999998,94.021,28.792ZM101.926,31L101.926,26.542L102.634,26.542L102.634,31L101.926,31ZM107.131,31L107.131,26.542L109.723,26.542L109.723,27.082L107.839,27.082L107.839,28.438L109.237,28.438L109.237,28.972L107.839,28.972L107.839,30.448L109.933,30.448L109.933,31L107.131,31ZM115.162,31.048000000000002Q114.871,31.048000000000002,114.6115,31.0045Q114.352,30.961,114.166,30.901Q113.98,30.841,113.899,30.79L114.046,30.217Q114.16,30.283,114.331,30.346Q114.502,30.409,114.706,30.4495Q114.91,30.490000000000002,115.12,30.490000000000002Q115.531,30.490000000000002,115.747,30.352Q115.963,30.214,115.963,29.902Q115.963,29.692,115.855,29.549500000000002Q115.747,29.407,115.5325,29.281Q115.318,29.155,114.997,29.002Q114.724,28.867,114.4675,28.678Q114.211,28.489,114.046,28.234Q113.881,27.979,113.881,27.649Q113.881,27.325,114.0085,27.1045Q114.136,26.884,114.352,26.749Q114.568,26.614,114.8335,26.554Q115.099,26.494,115.378,26.494Q115.786,26.494,116.053,26.5735Q116.32,26.653,116.437,26.731L116.299,27.286Q116.146,27.19,115.9405,27.113500000000002Q115.735,27.037,115.378,27.037Q115.159,27.037,114.973,27.094Q114.787,27.151,114.673,27.268Q114.559,27.384999999999998,114.559,27.568Q114.559,27.775,114.6445,27.9145Q114.73,28.054,114.922,28.1755Q115.114,28.297,115.426,28.459Q115.651,28.576,115.87,28.7065Q116.089,28.837,116.2675,28.996Q116.446,29.155,116.5525,29.360500000000002Q116.659,29.566,116.659,29.83Q116.659,30.238,116.4685,30.5095Q116.278,30.781,115.9405,30.9145Q115.603,31.048000000000002,115.162,31.048000000000002Z" fill="#171717" fill-opacity="1"/></g><g clip-path="url(#master_svg0_163_2383)"><g><g><g><g><path d="M0,5L27.7983,5L27.7983,7.691L5.84874,22.1679L12.5714,32.659400000000005L0,24.5523L0,19.3747L16.1681,9.80292L0,9.189779999999999L0,5Z" fill="#000000" fill-opacity="1" style="mix-blend-mode:passthrough"/></g></g><g><g><path d="M14.554622650146484,19.374690361938477L28.000022650146484,9.973230361938477L28.000022650146484,33.00003036193848L22.991602650146483,33.00003036193848L23.159662650146487,19.204370361938476L16.773112650146484,23.394130361938476L14.554622650146484,19.374690361938477Z" fill="#000000" fill-opacity="1" style="mix-blend-mode:passthrough"/></g></g><g><g><path d="M21.277317001342773,33.000054449462894L12.873947001342774,19.88565444946289L8.537817001342773,22.91728444946289L14.890757001342774,33.000054449462894L21.277317001342773,33.000054449462894Z" fill="#000000" fill-opacity="1" style="mix-blend-mode:passthrough"/></g></g></g></g></g></g></svg>